<svg width="24" height="22" viewBox="0 0 24 22" fill="none" xmlns="http://www.w3.org/2000/svg">
<path d="M12 21.3523C11.6583 21.3523 11.3289 21.2285 11.0722 21.0036C10.1026 20.1558 9.16789 19.3591 8.34317 18.6564L8.33895 18.6527C5.92105 16.5923 3.8331 14.8128 2.38035 13.06C0.75642 11.1004 0 9.24242 0 7.21269C0 5.24066 0.676217 3.42131 1.90392 2.08959C3.14629 0.742123 4.85099 0 6.70457 0C8.08995 0 9.35867 0.437999 10.4755 1.30172C11.039 1.73765 11.5499 2.27123 12 2.89359C12.4502 2.27123 12.9609 1.73765 13.5247 1.30172C14.6415 0.437999 15.9102 0 17.2956 0C19.149 0 20.8538 0.742123 22.0962 2.08959C23.3239 3.42131 24 5.24066 24 7.21269C24 9.24237 23.2437 11.1004 21.6198 13.0598C20.167 14.8128 18.0792 16.5921 15.6617 18.6524C14.8355 19.3562 13.8993 20.1542 12.9276 21.004C12.6708 21.2286 12.3412 21.3524 12 21.3523ZM6.70457 1.40587C5.24835 1.40587 3.91059 1.98707 2.93737 3.04246C1.94972 4.11384 1.40568 5.5948 1.40568 7.21269C1.40568 8.91978 2.04014 10.4465 3.4627 12.163C4.83763 13.8221 6.88274 15.5649 9.25067 17.5829L9.25503 17.5865C10.0828 18.292 11.0213 19.0918 11.998 19.9458C12.9805 19.0902 13.9204 18.2891 14.7498 17.5825C17.1176 15.5645 19.1625 13.8221 20.5374 12.163C21.9598 10.4465 22.5943 8.91978 22.5943 7.21269C22.5943 5.59475 22.0502 4.11379 21.0626 3.04246C20.0896 1.98707 18.7516 1.40587 17.2956 1.40587C16.2288 1.40587 15.2493 1.74501 14.3846 2.41368C13.6139 3.00988 13.077 3.76354 12.7622 4.29088C12.6004 4.56205 12.3155 4.72391 12 4.72391C11.6845 4.72391 11.3996 4.56205 11.2377 4.29088C10.9232 3.76354 10.3863 3.00988 9.61536 2.41368C8.75061 1.74501 7.77116 1.40587 6.70457 1.40587Z" fill="black"/>
</svg>
