<?xml version="1.0" standalone="no"?>
<!DOCTYPE svg PUBLIC "-//W3C//DTD SVG 20010904//EN"
 "http://www.w3.org/TR/2001/REC-SVG-20010904/DTD/svg10.dtd">
<svg version="1.0" xmlns="http://www.w3.org/2000/svg"
 width="225.000000pt" height="225.000000pt" viewBox="0 0 225.000000 225.000000"
 preserveAspectRatio="xMidYMid meet">

<g transform="translate(0.000000,225.000000) scale(0.100000,-0.100000)"
fill="#000000" stroke="none">
<path d="M954 2074 c-57 -149 -107 -194 -212 -194 -49 0 -73 7 -151 45 -51 25
-96 45 -101 45 -4 0 -49 -45 -100 -100 l-93 -101 42 -87 c35 -74 41 -97 41
-151 0 -116 -43 -167 -194 -226 l-96 -38 0 -142 0 -143 101 -38 c78 -30 108
-46 136 -77 78 -87 81 -161 11 -302 l-43 -85 96 -96 95 -95 98 47 c113 55 165
60 233 26 61 -32 104 -89 142 -192 l34 -91 140 3 141 3 37 95 c77 202 188 246
384 152 l82 -40 96 97 95 96 -43 85 c-54 106 -62 145 -41 207 25 72 61 107
171 166 l100 53 3 136 3 135 -98 37 c-206 78 -248 186 -150 382 l42 84 -96 96
-95 95 -97 -47 c-111 -53 -167 -60 -233 -26 -65 34 -99 79 -140 185 l-37 97
-133 0 -132 0 -38 -96z m275 -509 c246 -58 390 -302 326 -550 -33 -127 -120
-230 -241 -287 -52 -24 -83 -32 -153 -36 -152 -8 -271 36 -362 136 -58 64 -83
109 -104 189 -86 331 201 626 534 548z"/>
</g>
</svg>
