<svg version="1.0" xmlns="http://www.w3.org/2000/svg" width="300" height="300" viewBox="0 0 225 225"><path d="M95.4 17.6C89.7 32.5 84.7 37 74.2 37c-4.9 0-7.3-.7-15.1-4.5C54 30 49.5 28 49 28c-.4 0-4.9 4.5-10 10l-9.3 10.1 4.2 8.7c3.5 7.4 4.1 9.7 4.1 15.1 0 11.6-4.3 16.7-19.4 22.6L9 98.3v28.5l10.1 3.8c7.8 3 10.8 4.6 13.6 7.7 7.8 8.7 8.1 16.1 1.1 30.2l-4.3 8.5 9.6 9.6 9.5 9.5 9.8-4.7c11.3-5.5 16.5-6 23.3-2.6 6.1 3.2 10.4 8.9 14.2 19.2l3.4 9.1 14-.3 14.1-.3 3.7-9.5c7.7-20.2 18.8-24.6 38.4-15.2l8.2 4 9.6-9.7 9.5-9.6-4.3-8.5c-5.4-10.6-6.2-14.5-4.1-20.7 2.5-7.2 6.1-10.7 17.1-16.6l10-5.3.3-13.6.3-13.5-9.8-3.7c-20.6-7.8-24.8-18.6-15-38.2l4.2-8.4-9.6-9.6-9.5-9.5-9.7 4.7c-11.1 5.3-16.7 6-23.3 2.6-6.5-3.4-9.9-7.9-14-18.5L125.7 8H99.2l-3.8 9.6zm27.5 50.9c24.6 5.8 39 30.2 32.6 55-3.3 12.7-12 23-24.1 28.7-5.2 2.4-8.3 3.2-15.3 3.6-15.2.8-27.1-3.6-36.2-13.6-5.8-6.4-8.3-10.9-10.4-18.9-8.6-33.1 20.1-62.6 53.4-54.8z"/></svg>