<?xml version="1.0" encoding="utf-8"?>
<svg xmlns="http://www.w3.org/2000/svg" xmlns:xlink="http://www.w3.org/1999/xlink">
  <symbol fill="none" viewBox="0 0 24 24" id="close">
    <path d="m13.832 12 7.788-7.788a1.294 1.294 0 0 0 0-1.832 1.294 1.294 0 0 0-1.832 0L12 10.168 4.212 2.38a1.294 1.294 0 0 0-1.832 0 1.294 1.294 0 0 0 0 1.832L10.168 12 2.38 19.788A1.294 1.294 0 0 0 3.296 22c.332 0 .664-.127.916-.38L12 13.832l7.788 7.788a1.292 1.292 0 0 0 1.832 0 1.294 1.294 0 0 0 0-1.832L13.832 12Z" fill="#000"/>
  </symbol>
  <symbol fill="none" viewBox="0 0 24 22" id="heart">
    <path d="M12 21.352c-.342 0-.671-.123-.928-.348-.97-.848-1.904-1.645-2.729-2.348l-.004-.003c-2.418-2.06-4.506-3.84-5.959-5.593C.756 11.1 0 9.242 0 7.213 0 5.24.676 3.42 1.904 2.09A6.454 6.454 0 0 1 6.704 0C8.09 0 9.36.438 10.477 1.302c.563.436 1.074.97 1.524 1.592.45-.623.96-1.156 1.525-1.592C14.642.438 15.91 0 17.295 0c1.854 0 3.559.742 4.801 2.09C23.324 3.42 24 5.24 24 7.213c0 2.03-.756 3.887-2.38 5.847-1.453 1.753-3.54 3.532-5.958 5.592-.827.704-1.763 1.502-2.734 2.352a1.408 1.408 0 0 1-.928.348ZM6.705 1.406a5.063 5.063 0 0 0-3.768 1.636c-.987 1.072-1.531 2.553-1.531 4.17 0 1.708.634 3.235 2.057 4.951 1.375 1.66 3.42 3.402 5.788 5.42l.004.004c.828.705 1.766 1.505 2.743 2.359.982-.856 1.922-1.657 2.752-2.364 2.368-2.018 4.413-3.76 5.787-5.419 1.423-1.716 2.057-3.243 2.057-4.95 0-1.618-.544-3.1-1.531-4.17a5.063 5.063 0 0 0-3.767-1.637c-1.067 0-2.047.339-2.911 1.008-.771.596-1.308 1.35-1.623 1.877a.88.88 0 0 1-.762.433.88.88 0 0 1-.762-.433c-.315-.527-.852-1.281-1.623-1.877a4.662 4.662 0 0 0-2.91-1.008Z" fill="#000"/>
  </symbol>
</svg>
