<svg width="24" height="24" viewBox="0 0 24 24" fill="none" xmlns="http://www.w3.org/2000/svg">
  <path d="M13.8322 12.0002L21.6199 4.21216C22.1267 3.70557 22.1267 2.88647 21.6199 2.37994C21.1134 1.87335 20.2943 1.87335 19.7878 2.37994L11.9999 10.1679L4.21229 2.37994C3.70547 1.87335 2.88669 1.87335 2.38011 2.37994C1.8733 2.88653 1.8733 3.70557 2.38011 4.21216L10.1676 12.0002L2.38017 19.7881C1.87336 20.2947 1.87336 21.1138 2.38017 21.6204C2.50034 21.7409 2.64312 21.8364 2.80034 21.9016C2.95755 21.9667 3.12608 22.0002 3.29626 22C3.6279 22 3.95967 21.873 4.21235 21.6204L11.9999 13.8324L19.7878 21.6204C19.9079 21.7409 20.0507 21.8364 20.2079 21.9016C20.3651 21.9667 20.5337 22.0002 20.7038 22C21.0355 22 21.3673 21.873 21.6199 21.6204C22.1267 21.1138 22.1267 20.2947 21.6199 19.7881L13.8322 12.0002Z" fill="black" />
</svg>